<svg width="693" height="51" viewBox="0 0 693 51" fill="none" xmlns="http://www.w3.org/2000/svg">
<path d="M22.5121 23.072L13.8321 21.28L26.3761 1.90735e-06H36.6241L22.5121 23.072ZM13.8321 39.2V20.384H22.8481V39.2H13.8321ZM14.1121 23.072L6.25029e-05 1.90735e-06H10.2481L22.7921 21.28L14.1121 23.072ZM47.9002 39.872C44.9509 39.872 42.3562 39.256 40.1162 38.024C37.8762 36.7547 36.1029 35.0187 34.7962 32.816C33.5269 30.6133 32.8922 28.0747 32.8922 25.2C32.8922 22.3253 33.5082 19.7867 34.7402 17.584C36.0095 15.3813 37.7642 13.664 40.0042 12.432C42.2815 11.1627 44.8575 10.528 47.7322 10.528C50.6815 10.528 53.2762 11.1627 55.5162 12.432C57.7935 13.664 59.5482 15.3813 60.7802 17.584C62.0495 19.7867 62.6842 22.3253 62.6842 25.2C62.6842 28.0747 62.0495 30.6133 60.7802 32.816C59.5482 35.0187 57.8122 36.7547 55.5722 38.024C53.3322 39.256 50.7749 39.872 47.9002 39.872ZM47.9002 31.808C49.0202 31.808 50.0095 31.528 50.8682 30.968C51.7642 30.408 52.4549 29.6427 52.9402 28.672C53.4629 27.664 53.7242 26.5067 53.7242 25.2C53.7242 23.8933 53.4629 22.7547 52.9402 21.784C52.4549 20.776 51.7642 19.992 50.8682 19.432C49.9722 18.872 48.9455 18.592 47.7882 18.592C46.6309 18.592 45.6042 18.872 44.7082 19.432C43.8122 19.992 43.1029 20.776 42.5802 21.784C42.0949 22.7547 41.8522 23.8933 41.8522 25.2C41.8522 26.5067 42.0949 27.664 42.5802 28.672C43.1029 29.6427 43.8122 30.408 44.7082 30.968C45.6415 31.528 46.7055 31.808 47.9002 31.808ZM85.0859 39.2L84.5819 34.048V11.2H93.3179V39.2H85.0859ZM66.5499 25.536V11.2H75.2859V25.536H66.5499ZM75.2859 25.536C75.2859 26.992 75.4539 28.168 75.7899 29.064C76.1259 29.96 76.6113 30.6133 77.2459 31.024C77.8806 31.4347 78.6273 31.6587 79.4859 31.696C81.1659 31.696 82.4353 31.2293 83.2939 30.296C84.1526 29.3253 84.5819 27.888 84.5819 25.984H87.2139C87.2139 28.9333 86.7659 31.4533 85.8699 33.544C84.9739 35.5973 83.7419 37.1653 82.1739 38.248C80.6433 39.3307 78.8513 39.872 76.7979 39.872C74.5579 39.872 72.6726 39.424 71.1419 38.528C69.6113 37.5947 68.4539 36.1947 67.6699 34.328C66.9233 32.4613 66.5499 30.072 66.5499 27.16V25.536H75.2859ZM105.484 24.696C105.484 21.672 106.081 19.152 107.276 17.136C108.508 15.12 110.038 13.608 111.868 12.6C113.734 11.592 115.676 11.088 117.692 11.088V19.6C115.974 19.6 114.35 19.7867 112.82 20.16C111.326 20.5333 110.113 21.112 109.18 21.896C108.246 22.6427 107.78 23.6133 107.78 24.808L105.484 24.696ZM99.0435 39.2V11.2H107.78V39.2H99.0435ZM134.761 50.4V11.2H142.993L143.497 16.352V50.4H134.761ZM151.449 39.872C149.134 39.872 147.193 39.2933 145.625 38.136C144.057 36.9413 142.881 35.2427 142.097 33.04C141.313 30.8373 140.921 28.224 140.921 25.2C140.921 22.1387 141.313 19.5253 142.097 17.36C142.881 15.1573 144.057 13.4773 145.625 12.32C147.193 11.1253 149.134 10.528 151.449 10.528C154.062 10.528 156.321 11.1253 158.225 12.32C160.129 13.4773 161.585 15.1573 162.593 17.36C163.601 19.5253 164.105 22.1387 164.105 25.2C164.105 28.224 163.601 30.8373 162.593 33.04C161.585 35.2427 160.129 36.9413 158.225 38.136C156.321 39.2933 154.062 39.872 151.449 39.872ZM149.209 31.808C150.329 31.808 151.318 31.528 152.177 30.968C153.036 30.408 153.726 29.6427 154.249 28.672C154.772 27.664 155.033 26.5067 155.033 25.2C155.033 23.8933 154.79 22.7547 154.305 21.784C153.82 20.776 153.129 19.992 152.233 19.432C151.374 18.872 150.385 18.592 149.265 18.592C148.145 18.592 147.137 18.872 146.241 19.432C145.382 19.992 144.71 20.776 144.225 21.784C143.74 22.792 143.497 23.9307 143.497 25.2C143.497 26.5067 143.74 27.664 144.225 28.672C144.71 29.6427 145.382 30.408 146.241 30.968C147.1 31.528 148.089 31.808 149.209 31.808ZM181.827 39.872C178.915 39.872 176.339 39.256 174.099 38.024C171.859 36.792 170.105 35.0747 168.835 32.872C167.566 30.6693 166.931 28.112 166.931 25.2C166.931 22.288 167.566 19.7307 168.835 17.528C170.105 15.3253 171.859 13.608 174.099 12.376C176.377 11.144 178.99 10.528 181.939 10.528C184.59 10.528 186.979 11.1627 189.107 12.432C191.235 13.7013 192.915 15.6053 194.147 18.144C195.417 20.6453 196.051 23.744 196.051 27.44H174.995L175.947 26.376C175.947 27.6453 176.209 28.7653 176.731 29.736C177.254 30.7067 177.982 31.4533 178.915 31.976C179.849 32.4613 180.894 32.704 182.051 32.704C183.433 32.704 184.59 32.4053 185.523 31.808C186.457 31.1733 187.11 30.3893 187.483 29.456L195.267 32.088C194.521 33.88 193.457 35.3547 192.075 36.512C190.731 37.6693 189.182 38.528 187.427 39.088C185.673 39.6107 183.806 39.872 181.827 39.872ZM176.171 22.792L175.275 21.616H187.819L186.979 22.792C186.979 21.3733 186.699 20.272 186.139 19.488C185.579 18.6667 184.889 18.0693 184.067 17.696C183.283 17.3227 182.481 17.136 181.659 17.136C180.838 17.136 179.998 17.3227 179.139 17.696C178.318 18.0693 177.609 18.6667 177.011 19.488C176.451 20.272 176.171 21.3733 176.171 22.792ZM206.163 24.696C206.163 21.672 206.761 19.152 207.955 17.136C209.187 15.12 210.718 13.608 212.547 12.6C214.414 11.592 216.355 11.088 218.371 11.088V19.6C216.654 19.6 215.03 19.7867 213.499 20.16C212.006 20.5333 210.793 21.112 209.859 21.896C208.926 22.6427 208.459 23.6133 208.459 24.808L206.163 24.696ZM199.723 39.2V11.2H208.459V39.2H199.723ZM232.564 39.872C230.734 39.872 229.017 39.6107 227.412 39.088C225.844 38.5653 224.462 37.8187 223.268 36.848C222.11 35.84 221.252 34.6267 220.692 33.208L227.916 30.184C228.401 31.1173 229.073 31.8267 229.932 32.312C230.79 32.76 231.668 32.984 232.564 32.984C233.46 32.984 234.169 32.8347 234.692 32.536C235.214 32.2 235.476 31.752 235.476 31.192C235.476 30.5947 235.214 30.128 234.692 29.792C234.169 29.456 233.404 29.1573 232.396 28.896L229.932 28.336C227.356 27.664 225.358 26.544 223.94 24.976C222.521 23.408 221.812 21.5973 221.812 19.544C221.812 16.6693 222.801 14.448 224.78 12.88C226.758 11.312 229.502 10.528 233.012 10.528C235.028 10.528 236.782 10.808 238.276 11.368C239.806 11.8907 241.076 12.6373 242.084 13.608C243.129 14.5413 243.876 15.624 244.324 16.856L237.38 19.768C237.118 19.0213 236.577 18.4427 235.756 18.032C234.934 17.6213 234.057 17.416 233.124 17.416C232.302 17.416 231.668 17.6027 231.22 17.976C230.772 18.3493 230.548 18.816 230.548 19.376C230.548 19.824 230.809 20.216 231.332 20.552C231.892 20.8507 232.694 21.1307 233.74 21.392L236.708 22.12C238.462 22.568 239.937 23.2587 241.132 24.192C242.326 25.088 243.222 26.152 243.82 27.384C244.417 28.5787 244.716 29.8667 244.716 31.248C244.716 33.04 244.193 34.5893 243.148 35.896C242.14 37.1653 240.721 38.1547 238.892 38.864C237.062 39.536 234.953 39.872 232.564 39.872ZM262.385 39.872C259.435 39.872 256.841 39.256 254.601 38.024C252.361 36.7547 250.587 35.0187 249.281 32.816C248.011 30.6133 247.377 28.0747 247.377 25.2C247.377 22.3253 247.993 19.7867 249.225 17.584C250.494 15.3813 252.249 13.664 254.489 12.432C256.766 11.1627 259.342 10.528 262.217 10.528C265.166 10.528 267.761 11.1627 270.001 12.432C272.278 13.664 274.033 15.3813 275.265 17.584C276.534 19.7867 277.169 22.3253 277.169 25.2C277.169 28.0747 276.534 30.6133 275.265 32.816C274.033 35.0187 272.297 36.7547 270.057 38.024C267.817 39.256 265.259 39.872 262.385 39.872ZM262.385 31.808C263.505 31.808 264.494 31.528 265.353 30.968C266.249 30.408 266.939 29.6427 267.425 28.672C267.947 27.664 268.209 26.5067 268.209 25.2C268.209 23.8933 267.947 22.7547 267.425 21.784C266.939 20.776 266.249 19.992 265.353 19.432C264.457 18.872 263.43 18.592 262.273 18.592C261.115 18.592 260.089 18.872 259.193 19.432C258.297 19.992 257.587 20.776 257.065 21.784C256.579 22.7547 256.337 23.8933 256.337 25.2C256.337 26.5067 256.579 27.664 257.065 28.672C257.587 29.6427 258.297 30.408 259.193 30.968C260.126 31.528 261.19 31.808 262.385 31.808ZM281.426 39.2V11.2H289.658L290.162 16.352V39.2H281.426ZM299.458 39.2V24.864H308.194V39.2H299.458ZM299.458 24.864C299.458 23.3707 299.29 22.1947 298.954 21.336C298.618 20.44 298.133 19.7867 297.498 19.376C296.901 18.9653 296.154 18.7413 295.258 18.704C293.578 18.6667 292.309 19.1333 291.45 20.104C290.592 21.0373 290.162 22.4747 290.162 24.416H287.53C287.53 21.4667 287.978 18.9653 288.874 16.912C289.77 14.8213 290.984 13.2347 292.514 12.152C294.082 11.0693 295.893 10.528 297.946 10.528C300.186 10.528 302.072 10.9947 303.602 11.928C305.133 12.824 306.272 14.2053 307.018 16.072C307.802 17.9387 308.194 20.328 308.194 23.24V24.864H299.458ZM330.16 39.2L329.88 33.152V25.256C329.88 23.7627 329.749 22.456 329.488 21.336C329.264 20.216 328.797 19.3573 328.088 18.76C327.416 18.1253 326.427 17.808 325.12 17.808C324.075 17.808 323.16 18.0507 322.376 18.536C321.592 19.0213 320.92 19.6747 320.36 20.496L312.688 17.976C313.36 16.5947 314.237 15.344 315.32 14.224C316.44 13.104 317.803 12.208 319.408 11.536C321.013 10.864 322.88 10.528 325.008 10.528C327.92 10.528 330.384 11.0693 332.4 12.152C334.416 13.2347 335.928 14.7467 336.936 16.688C337.944 18.6293 338.448 20.9253 338.448 23.576L338.336 39.2H330.16ZM322.488 39.872C319.203 39.872 316.645 39.144 314.816 37.688C312.987 36.1947 312.072 34.0667 312.072 31.304C312.072 28.3547 313.024 26.152 314.928 24.696C316.832 23.24 319.501 22.512 322.936 22.512H330.608V28.168H326.184C324.355 28.168 323.029 28.4293 322.208 28.952C321.387 29.4373 320.976 30.1467 320.976 31.08C320.976 31.752 321.275 32.2933 321.872 32.704C322.507 33.0773 323.365 33.264 324.448 33.264C325.531 33.264 326.464 33.04 327.248 32.592C328.069 32.1067 328.704 31.472 329.152 30.688C329.637 29.904 329.88 29.064 329.88 28.168H332.12C332.12 31.864 331.317 34.7387 329.712 36.792C328.144 38.8453 325.736 39.872 322.488 39.872ZM343.77 39.2V1.90735e-06H352.506V39.2H343.77ZM371.613 50.4V11.2H379.845L380.349 16.352V50.4H371.613ZM388.301 39.872C385.986 39.872 384.045 39.2933 382.477 38.136C380.909 36.9413 379.733 35.2427 378.949 33.04C378.165 30.8373 377.773 28.224 377.773 25.2C377.773 22.1387 378.165 19.5253 378.949 17.36C379.733 15.1573 380.909 13.4773 382.477 12.32C384.045 11.1253 385.986 10.528 388.301 10.528C390.914 10.528 393.173 11.1253 395.077 12.32C396.981 13.4773 398.437 15.1573 399.445 17.36C400.453 19.5253 400.957 22.1387 400.957 25.2C400.957 28.224 400.453 30.8373 399.445 33.04C398.437 35.2427 396.981 36.9413 395.077 38.136C393.173 39.2933 390.914 39.872 388.301 39.872ZM386.061 31.808C387.181 31.808 388.17 31.528 389.029 30.968C389.887 30.408 390.578 29.6427 391.101 28.672C391.623 27.664 391.885 26.5067 391.885 25.2C391.885 23.8933 391.642 22.7547 391.157 21.784C390.671 20.776 389.981 19.992 389.085 19.432C388.226 18.872 387.237 18.592 386.117 18.592C384.997 18.592 383.989 18.872 383.093 19.432C382.234 19.992 381.562 20.776 381.077 21.784C380.591 22.792 380.349 23.9307 380.349 25.2C380.349 26.5067 380.591 27.664 381.077 28.672C381.562 29.6427 382.234 30.408 383.093 30.968C383.951 31.528 384.941 31.808 386.061 31.808ZM405.351 39.2V1.90735e-06H414.087V39.2H405.351ZM423.383 39.2V24.864H432.119V39.2H423.383ZM423.383 24.864C423.383 23.3707 423.215 22.1947 422.879 21.336C422.543 20.44 422.057 19.7867 421.423 19.376C420.788 18.9653 420.041 18.7413 419.183 18.704C417.503 18.6667 416.233 19.1333 415.375 20.104C414.516 21.0373 414.087 22.4747 414.087 24.416H411.455C411.455 21.4667 411.903 18.9653 412.799 16.912C413.695 14.8213 414.908 13.2347 416.439 12.152C418.007 11.0693 419.799 10.528 421.815 10.528C424.092 10.528 425.996 10.9947 427.527 11.928C429.057 12.824 430.196 14.2053 430.943 16.072C431.727 17.9387 432.119 20.328 432.119 23.24V24.864H423.383ZM451.002 39.872C448.052 39.872 445.458 39.256 443.218 38.024C440.978 36.7547 439.204 35.0187 437.898 32.816C436.628 30.6133 435.994 28.0747 435.994 25.2C435.994 22.3253 436.61 19.7867 437.842 17.584C439.111 15.3813 440.866 13.664 443.106 12.432C445.383 11.1627 447.959 10.528 450.834 10.528C453.783 10.528 456.378 11.1627 458.618 12.432C460.895 13.664 462.65 15.3813 463.882 17.584C465.151 19.7867 465.786 22.3253 465.786 25.2C465.786 28.0747 465.151 30.6133 463.882 32.816C462.65 35.0187 460.914 36.7547 458.674 38.024C456.434 39.256 453.876 39.872 451.002 39.872ZM451.002 31.808C452.122 31.808 453.111 31.528 453.97 30.968C454.866 30.408 455.556 29.6427 456.042 28.672C456.564 27.664 456.826 26.5067 456.826 25.2C456.826 23.8933 456.564 22.7547 456.042 21.784C455.556 20.776 454.866 19.992 453.97 19.432C453.074 18.872 452.047 18.592 450.89 18.592C449.732 18.592 448.706 18.872 447.81 19.432C446.914 19.992 446.204 20.776 445.682 21.784C445.196 22.7547 444.954 23.8933 444.954 25.2C444.954 26.5067 445.196 27.664 445.682 28.672C446.204 29.6427 446.914 30.408 447.81 30.968C448.743 31.528 449.807 31.808 451.002 31.808ZM482.084 39.872C478.761 39.872 476.278 39.088 474.636 37.52C473.03 35.9147 472.228 33.6373 472.228 30.688V2.464H480.964V28.504C480.964 29.624 481.169 30.4453 481.579 30.968C481.99 31.4907 482.625 31.752 483.484 31.752C483.82 31.752 484.212 31.6773 484.66 31.528C485.108 31.3413 485.518 31.1173 485.892 30.856L488.916 37.24C488.02 37.9867 486.937 38.6213 485.668 39.144C484.436 39.6293 483.241 39.872 482.084 39.872ZM467.86 18.536V11.2H487.348V18.536H467.86ZM506.127 39.872C503.177 39.872 500.583 39.256 498.343 38.024C496.103 36.7547 494.329 35.0187 493.023 32.816C491.753 30.6133 491.119 28.0747 491.119 25.2C491.119 22.3253 491.735 19.7867 492.967 17.584C494.236 15.3813 495.991 13.664 498.231 12.432C500.508 11.1627 503.084 10.528 505.959 10.528C508.908 10.528 511.503 11.1627 513.743 12.432C516.02 13.664 517.775 15.3813 519.007 17.584C520.276 19.7867 520.911 22.3253 520.911 25.2C520.911 28.0747 520.276 30.6133 519.007 32.816C517.775 35.0187 516.039 36.7547 513.799 38.024C511.559 39.256 509.001 39.872 506.127 39.872ZM506.127 31.808C507.247 31.808 508.236 31.528 509.095 30.968C509.991 30.408 510.681 29.6427 511.167 28.672C511.689 27.664 511.951 26.5067 511.951 25.2C511.951 23.8933 511.689 22.7547 511.167 21.784C510.681 20.776 509.991 19.992 509.095 19.432C508.199 18.872 507.172 18.592 506.015 18.592C504.857 18.592 503.831 18.872 502.935 19.432C502.039 19.992 501.329 20.776 500.807 21.784C500.321 22.7547 500.079 23.8933 500.079 25.2C500.079 26.5067 500.321 27.664 500.807 28.672C501.329 29.6427 502.039 30.408 502.935 30.968C503.868 31.528 504.932 31.808 506.127 31.808ZM554.926 39.2L554.646 33.152V25.256C554.646 23.7627 554.515 22.456 554.254 21.336C554.03 20.216 553.563 19.3573 552.854 18.76C552.182 18.1253 551.192 17.808 549.886 17.808C548.84 17.808 547.926 18.0507 547.142 18.536C546.358 19.0213 545.686 19.6747 545.126 20.496L537.454 17.976C538.126 16.5947 539.003 15.344 540.086 14.224C541.206 13.104 542.568 12.208 544.174 11.536C545.779 10.864 547.646 10.528 549.774 10.528C552.686 10.528 555.15 11.0693 557.166 12.152C559.182 13.2347 560.694 14.7467 561.702 16.688C562.71 18.6293 563.214 20.9253 563.214 23.576L563.102 39.2H554.926ZM547.254 39.872C543.968 39.872 541.411 39.144 539.582 37.688C537.752 36.1947 536.838 34.0667 536.838 31.304C536.838 28.3547 537.79 26.152 539.694 24.696C541.598 23.24 544.267 22.512 547.702 22.512H555.374V28.168H550.95C549.12 28.168 547.795 28.4293 546.974 28.952C546.152 29.4373 545.742 30.1467 545.742 31.08C545.742 31.752 546.04 32.2933 546.638 32.704C547.272 33.0773 548.131 33.264 549.214 33.264C550.296 33.264 551.23 33.04 552.014 32.592C552.835 32.1067 553.47 31.472 553.918 30.688C554.403 29.904 554.646 29.064 554.646 28.168H556.886C556.886 31.864 556.083 34.7387 554.478 36.792C552.91 38.8453 550.502 39.872 547.254 39.872ZM568.536 39.2V1.90735e-06H577.272V39.2H568.536ZM582.973 39.2V1.90735e-06H591.709V33.992L591.261 39.2H582.973ZM599.661 39.872C597.347 39.872 595.405 39.2933 593.837 38.136C592.269 36.9413 591.093 35.2427 590.309 33.04C589.525 30.8373 589.133 28.224 589.133 25.2C589.133 22.1387 589.525 19.5253 590.309 17.36C591.093 15.1573 592.269 13.4773 593.837 12.32C595.405 11.1253 597.347 10.528 599.661 10.528C602.275 10.528 604.533 11.1253 606.437 12.32C608.341 13.4773 609.797 15.1573 610.805 17.36C611.813 19.5253 612.317 22.1387 612.317 25.2C612.317 28.224 611.813 30.8373 610.805 33.04C609.797 35.2427 608.341 36.9413 606.437 38.136C604.533 39.2933 602.275 39.872 599.661 39.872ZM597.421 31.808C598.541 31.808 599.531 31.528 600.389 30.968C601.248 30.408 601.939 29.6427 602.461 28.672C602.984 27.664 603.245 26.5067 603.245 25.2C603.245 23.8933 603.003 22.7547 602.517 21.784C602.032 20.776 601.341 19.992 600.445 19.432C599.587 18.872 598.597 18.592 597.477 18.592C596.357 18.592 595.349 18.872 594.453 19.432C593.595 19.992 592.923 20.776 592.437 21.784C591.952 22.792 591.709 23.9307 591.709 25.2C591.709 26.5067 591.952 27.664 592.437 28.672C592.923 29.6427 593.595 30.408 594.453 30.968C595.312 31.528 596.301 31.808 597.421 31.808ZM634.695 39.2L634.191 34.048V11.2H642.927V39.2H634.695ZM616.159 25.536V11.2H624.895V25.536H616.159ZM624.895 25.536C624.895 26.992 625.063 28.168 625.399 29.064C625.735 29.96 626.221 30.6133 626.855 31.024C627.49 31.4347 628.237 31.6587 629.095 31.696C630.775 31.696 632.045 31.2293 632.903 30.296C633.762 29.3253 634.191 27.888 634.191 25.984H636.823C636.823 28.9333 636.375 31.4533 635.479 33.544C634.583 35.5973 633.351 37.1653 631.783 38.248C630.253 39.3307 628.461 39.872 626.407 39.872C624.167 39.872 622.282 39.424 620.751 38.528C619.221 37.5947 618.063 36.1947 617.279 34.328C616.533 32.4613 616.159 30.072 616.159 27.16V25.536H624.895ZM648.653 39.2V11.2H656.885L657.221 14.728C658.117 13.3467 659.218 12.3013 660.525 11.592C661.869 10.8827 663.344 10.528 664.949 10.528C667.264 10.528 669.168 11.0133 670.661 11.984C672.192 12.9173 673.312 14.3547 674.021 16.296C674.88 14.4293 676.056 13.0107 677.549 12.04C679.042 11.032 680.722 10.528 682.589 10.528C685.949 10.528 688.469 11.5547 690.149 13.608C691.866 15.6613 692.706 18.8533 692.669 23.184V39.2H683.933V24.864C683.933 23.3707 683.765 22.1947 683.429 21.336C683.13 20.44 682.682 19.7867 682.085 19.376C681.488 18.9653 680.778 18.7413 679.957 18.704C678.352 18.6667 677.12 19.1333 676.261 20.104C675.44 21.0373 675.029 22.4747 675.029 24.416V39.2H666.293V24.864C666.293 23.3707 666.125 22.1947 665.789 21.336C665.49 20.44 665.042 19.7867 664.445 19.376C663.848 18.9653 663.138 18.7413 662.317 18.704C660.712 18.6667 659.48 19.1333 658.621 20.104C657.8 21.0373 657.389 22.4747 657.389 24.416V39.2H648.653Z" fill="white"/>
</svg>
